G04 #@! TF.GenerationSoftware,KiCad,Pcbnew,5.0.2-bee76a0~70~ubuntu18.04.1*
G04 #@! TF.CreationDate,2020-10-28T09:15:44+01:00*
G04 #@! TF.ProjectId,ModulAdapter_Verv2,4d6f6475-6c41-4646-9170-7465725f5665,rev?*
G04 #@! TF.SameCoordinates,Original*
G04 #@! TF.FileFunction,Legend,Bot*
G04 #@! TF.FilePolarity,Positive*
%FSLAX46Y46*%
G04 Gerber Fmt 4.6, Leading zero omitted, Abs format (unit mm)*
G04 Created by KiCad (PCBNEW 5.0.2-bee76a0~70~ubuntu18.04.1) date Mi 28 Okt 2020 09:15:44 CET*
%MOMM*%
%LPD*%
G01*
G04 APERTURE LIST*
%ADD10C,0.150000*%
G04 APERTURE END LIST*
D10*
X91422323Y-124550666D02*
X90946133Y-124550666D01*
X91517561Y-124836380D02*
X91184228Y-123836380D01*
X90850895Y-124836380D01*
X90374704Y-124836380D02*
X90469942Y-124788761D01*
X90517561Y-124693523D01*
X90517561Y-123836380D01*
X89612800Y-124788761D02*
X89708038Y-124836380D01*
X89898514Y-124836380D01*
X89993752Y-124788761D01*
X90041371Y-124693523D01*
X90041371Y-124312571D01*
X89993752Y-124217333D01*
X89898514Y-124169714D01*
X89708038Y-124169714D01*
X89612800Y-124217333D01*
X89565180Y-124312571D01*
X89565180Y-124407809D01*
X90041371Y-124503047D01*
X89231847Y-124836380D02*
X88708038Y-124169714D01*
X89231847Y-124169714D02*
X88708038Y-124836380D01*
X88374704Y-124788761D02*
X88231847Y-124836380D01*
X87993752Y-124836380D01*
X87898514Y-124788761D01*
X87850895Y-124741142D01*
X87803276Y-124645904D01*
X87803276Y-124550666D01*
X87850895Y-124455428D01*
X87898514Y-124407809D01*
X87993752Y-124360190D01*
X88184228Y-124312571D01*
X88279466Y-124264952D01*
X88327085Y-124217333D01*
X88374704Y-124122095D01*
X88374704Y-124026857D01*
X88327085Y-123931619D01*
X88279466Y-123884000D01*
X88184228Y-123836380D01*
X87946133Y-123836380D01*
X87803276Y-123884000D01*
X87374704Y-124836380D02*
X87374704Y-123836380D01*
X87279466Y-124455428D02*
X86993752Y-124836380D01*
X86993752Y-124169714D02*
X87374704Y-124550666D01*
X86422323Y-124836380D02*
X86517561Y-124788761D01*
X86565180Y-124693523D01*
X86565180Y-123836380D01*
X85612800Y-124836380D02*
X85612800Y-124312571D01*
X85660419Y-124217333D01*
X85755657Y-124169714D01*
X85946133Y-124169714D01*
X86041371Y-124217333D01*
X85612800Y-124788761D02*
X85708038Y-124836380D01*
X85946133Y-124836380D01*
X86041371Y-124788761D01*
X86088990Y-124693523D01*
X86088990Y-124598285D01*
X86041371Y-124503047D01*
X85946133Y-124455428D01*
X85708038Y-124455428D01*
X85612800Y-124407809D01*
X85231847Y-124169714D02*
X84993752Y-124836380D01*
X84755657Y-124169714D01*
X127278933Y-119007200D02*
X127374171Y-118959580D01*
X127517028Y-118959580D01*
X127659885Y-119007200D01*
X127755123Y-119102438D01*
X127802742Y-119197676D01*
X127850361Y-119388152D01*
X127850361Y-119531009D01*
X127802742Y-119721485D01*
X127755123Y-119816723D01*
X127659885Y-119911961D01*
X127517028Y-119959580D01*
X127421790Y-119959580D01*
X127278933Y-119911961D01*
X127231314Y-119864342D01*
X127231314Y-119531009D01*
X127421790Y-119531009D01*
X126374171Y-119959580D02*
X126374171Y-119435771D01*
X126421790Y-119340533D01*
X126517028Y-119292914D01*
X126707504Y-119292914D01*
X126802742Y-119340533D01*
X126374171Y-119911961D02*
X126469409Y-119959580D01*
X126707504Y-119959580D01*
X126802742Y-119911961D01*
X126850361Y-119816723D01*
X126850361Y-119721485D01*
X126802742Y-119626247D01*
X126707504Y-119578628D01*
X126469409Y-119578628D01*
X126374171Y-119531009D01*
X125469409Y-119292914D02*
X125469409Y-119959580D01*
X125897980Y-119292914D02*
X125897980Y-119816723D01*
X125850361Y-119911961D01*
X125755123Y-119959580D01*
X125612266Y-119959580D01*
X125517028Y-119911961D01*
X125469409Y-119864342D01*
X124564647Y-119959580D02*
X124564647Y-118959580D01*
X124564647Y-119911961D02*
X124659885Y-119959580D01*
X124850361Y-119959580D01*
X124945600Y-119911961D01*
X124993219Y-119864342D01*
X125040838Y-119769104D01*
X125040838Y-119483390D01*
X124993219Y-119388152D01*
X124945600Y-119340533D01*
X124850361Y-119292914D01*
X124659885Y-119292914D01*
X124564647Y-119340533D01*
X124088457Y-119959580D02*
X124088457Y-119292914D01*
X124088457Y-118959580D02*
X124136076Y-119007200D01*
X124088457Y-119054819D01*
X124040838Y-119007200D01*
X124088457Y-118959580D01*
X124088457Y-119054819D01*
X123136076Y-119959580D02*
X123612266Y-119959580D01*
X123612266Y-118959580D01*
X122374171Y-119959580D02*
X122374171Y-119435771D01*
X122421790Y-119340533D01*
X122517028Y-119292914D01*
X122707504Y-119292914D01*
X122802742Y-119340533D01*
X122374171Y-119911961D02*
X122469409Y-119959580D01*
X122707504Y-119959580D01*
X122802742Y-119911961D01*
X122850361Y-119816723D01*
X122850361Y-119721485D01*
X122802742Y-119626247D01*
X122707504Y-119578628D01*
X122469409Y-119578628D01*
X122374171Y-119531009D01*
X121897980Y-119959580D02*
X121897980Y-118959580D01*
X121897980Y-119340533D02*
X121802742Y-119292914D01*
X121612266Y-119292914D01*
X121517028Y-119340533D01*
X121469409Y-119388152D01*
X121421790Y-119483390D01*
X121421790Y-119769104D01*
X121469409Y-119864342D01*
X121517028Y-119911961D01*
X121612266Y-119959580D01*
X121802742Y-119959580D01*
X121897980Y-119911961D01*
X121040838Y-119911961D02*
X120945600Y-119959580D01*
X120755123Y-119959580D01*
X120659885Y-119911961D01*
X120612266Y-119816723D01*
X120612266Y-119769104D01*
X120659885Y-119673866D01*
X120755123Y-119626247D01*
X120897980Y-119626247D01*
X120993219Y-119578628D01*
X121040838Y-119483390D01*
X121040838Y-119435771D01*
X120993219Y-119340533D01*
X120897980Y-119292914D01*
X120755123Y-119292914D01*
X120659885Y-119340533D01*
X119469409Y-119054819D02*
X119421790Y-119007200D01*
X119326552Y-118959580D01*
X119088457Y-118959580D01*
X118993219Y-119007200D01*
X118945600Y-119054819D01*
X118897980Y-119150057D01*
X118897980Y-119245295D01*
X118945600Y-119388152D01*
X119517028Y-119959580D01*
X118897980Y-119959580D01*
X118278933Y-118959580D02*
X118183695Y-118959580D01*
X118088457Y-119007200D01*
X118040838Y-119054819D01*
X117993219Y-119150057D01*
X117945600Y-119340533D01*
X117945600Y-119578628D01*
X117993219Y-119769104D01*
X118040838Y-119864342D01*
X118088457Y-119911961D01*
X118183695Y-119959580D01*
X118278933Y-119959580D01*
X118374171Y-119911961D01*
X118421790Y-119864342D01*
X118469409Y-119769104D01*
X118517028Y-119578628D01*
X118517028Y-119340533D01*
X118469409Y-119150057D01*
X118421790Y-119054819D01*
X118374171Y-119007200D01*
X118278933Y-118959580D01*
X117564647Y-119054819D02*
X117517028Y-119007200D01*
X117421790Y-118959580D01*
X117183695Y-118959580D01*
X117088457Y-119007200D01*
X117040838Y-119054819D01*
X116993219Y-119150057D01*
X116993219Y-119245295D01*
X117040838Y-119388152D01*
X117612266Y-119959580D01*
X116993219Y-119959580D01*
X116374171Y-118959580D02*
X116278933Y-118959580D01*
X116183695Y-119007200D01*
X116136076Y-119054819D01*
X116088457Y-119150057D01*
X116040838Y-119340533D01*
X116040838Y-119578628D01*
X116088457Y-119769104D01*
X116136076Y-119864342D01*
X116183695Y-119911961D01*
X116278933Y-119959580D01*
X116374171Y-119959580D01*
X116469409Y-119911961D01*
X116517028Y-119864342D01*
X116564647Y-119769104D01*
X116612266Y-119578628D01*
X116612266Y-119340533D01*
X116564647Y-119150057D01*
X116517028Y-119054819D01*
X116469409Y-119007200D01*
X116374171Y-118959580D01*
X83940457Y-88593880D02*
X83749980Y-88593880D01*
X83654742Y-88641500D01*
X83559504Y-88736738D01*
X83511885Y-88927214D01*
X83511885Y-89260547D01*
X83559504Y-89451023D01*
X83654742Y-89546261D01*
X83749980Y-89593880D01*
X83940457Y-89593880D01*
X84035695Y-89546261D01*
X84130933Y-89451023D01*
X84178552Y-89260547D01*
X84178552Y-88927214D01*
X84130933Y-88736738D01*
X84035695Y-88641500D01*
X83940457Y-88593880D01*
X83083314Y-88927214D02*
X83083314Y-89927214D01*
X83083314Y-88974833D02*
X82988076Y-88927214D01*
X82797600Y-88927214D01*
X82702361Y-88974833D01*
X82654742Y-89022452D01*
X82607123Y-89117690D01*
X82607123Y-89403404D01*
X82654742Y-89498642D01*
X82702361Y-89546261D01*
X82797600Y-89593880D01*
X82988076Y-89593880D01*
X83083314Y-89546261D01*
X81797600Y-89546261D02*
X81892838Y-89593880D01*
X82083314Y-89593880D01*
X82178552Y-89546261D01*
X82226171Y-89451023D01*
X82226171Y-89070071D01*
X82178552Y-88974833D01*
X82083314Y-88927214D01*
X81892838Y-88927214D01*
X81797600Y-88974833D01*
X81749980Y-89070071D01*
X81749980Y-89165309D01*
X82226171Y-89260547D01*
X81321409Y-88927214D02*
X81321409Y-89593880D01*
X81321409Y-89022452D02*
X81273790Y-88974833D01*
X81178552Y-88927214D01*
X81035695Y-88927214D01*
X80940457Y-88974833D01*
X80892838Y-89070071D01*
X80892838Y-89593880D01*
X80416647Y-89593880D02*
X80416647Y-88593880D01*
X80178552Y-88593880D01*
X80035695Y-88641500D01*
X79940457Y-88736738D01*
X79892838Y-88831976D01*
X79845219Y-89022452D01*
X79845219Y-89165309D01*
X79892838Y-89355785D01*
X79940457Y-89451023D01*
X80035695Y-89546261D01*
X80178552Y-89593880D01*
X80416647Y-89593880D01*
X79416647Y-89593880D02*
X79416647Y-88927214D01*
X79416647Y-89117690D02*
X79369028Y-89022452D01*
X79321409Y-88974833D01*
X79226171Y-88927214D01*
X79130933Y-88927214D01*
X78654742Y-89593880D02*
X78749980Y-89546261D01*
X78797600Y-89498642D01*
X78845219Y-89403404D01*
X78845219Y-89117690D01*
X78797600Y-89022452D01*
X78749980Y-88974833D01*
X78654742Y-88927214D01*
X78511885Y-88927214D01*
X78416647Y-88974833D01*
X78369028Y-89022452D01*
X78321409Y-89117690D01*
X78321409Y-89403404D01*
X78369028Y-89498642D01*
X78416647Y-89546261D01*
X78511885Y-89593880D01*
X78654742Y-89593880D01*
X77892838Y-88927214D02*
X77892838Y-89927214D01*
X77892838Y-88974833D02*
X77797600Y-88927214D01*
X77607123Y-88927214D01*
X77511885Y-88974833D01*
X77464266Y-89022452D01*
X77416647Y-89117690D01*
X77416647Y-89403404D01*
X77464266Y-89498642D01*
X77511885Y-89546261D01*
X77607123Y-89593880D01*
X77797600Y-89593880D01*
X77892838Y-89546261D01*
X126819857Y-89593880D02*
X126819857Y-88593880D01*
X126486523Y-89308166D01*
X126153190Y-88593880D01*
X126153190Y-89593880D01*
X125534142Y-89593880D02*
X125629380Y-89546261D01*
X125677000Y-89498642D01*
X125724619Y-89403404D01*
X125724619Y-89117690D01*
X125677000Y-89022452D01*
X125629380Y-88974833D01*
X125534142Y-88927214D01*
X125391285Y-88927214D01*
X125296047Y-88974833D01*
X125248428Y-89022452D01*
X125200809Y-89117690D01*
X125200809Y-89403404D01*
X125248428Y-89498642D01*
X125296047Y-89546261D01*
X125391285Y-89593880D01*
X125534142Y-89593880D01*
X124343666Y-89593880D02*
X124343666Y-88593880D01*
X124343666Y-89546261D02*
X124438904Y-89593880D01*
X124629380Y-89593880D01*
X124724619Y-89546261D01*
X124772238Y-89498642D01*
X124819857Y-89403404D01*
X124819857Y-89117690D01*
X124772238Y-89022452D01*
X124724619Y-88974833D01*
X124629380Y-88927214D01*
X124438904Y-88927214D01*
X124343666Y-88974833D01*
X123438904Y-88927214D02*
X123438904Y-89593880D01*
X123867476Y-88927214D02*
X123867476Y-89451023D01*
X123819857Y-89546261D01*
X123724619Y-89593880D01*
X123581761Y-89593880D01*
X123486523Y-89546261D01*
X123438904Y-89498642D01*
X122819857Y-89593880D02*
X122915095Y-89546261D01*
X122962714Y-89451023D01*
X122962714Y-88593880D01*
X121724619Y-89308166D02*
X121248428Y-89308166D01*
X121819857Y-89593880D02*
X121486523Y-88593880D01*
X121153190Y-89593880D01*
X120391285Y-89593880D02*
X120391285Y-88593880D01*
X120391285Y-89546261D02*
X120486523Y-89593880D01*
X120677000Y-89593880D01*
X120772238Y-89546261D01*
X120819857Y-89498642D01*
X120867476Y-89403404D01*
X120867476Y-89117690D01*
X120819857Y-89022452D01*
X120772238Y-88974833D01*
X120677000Y-88927214D01*
X120486523Y-88927214D01*
X120391285Y-88974833D01*
X119486523Y-89593880D02*
X119486523Y-89070071D01*
X119534142Y-88974833D01*
X119629380Y-88927214D01*
X119819857Y-88927214D01*
X119915095Y-88974833D01*
X119486523Y-89546261D02*
X119581761Y-89593880D01*
X119819857Y-89593880D01*
X119915095Y-89546261D01*
X119962714Y-89451023D01*
X119962714Y-89355785D01*
X119915095Y-89260547D01*
X119819857Y-89212928D01*
X119581761Y-89212928D01*
X119486523Y-89165309D01*
X119010333Y-88927214D02*
X119010333Y-89927214D01*
X119010333Y-88974833D02*
X118915095Y-88927214D01*
X118724619Y-88927214D01*
X118629380Y-88974833D01*
X118581761Y-89022452D01*
X118534142Y-89117690D01*
X118534142Y-89403404D01*
X118581761Y-89498642D01*
X118629380Y-89546261D01*
X118724619Y-89593880D01*
X118915095Y-89593880D01*
X119010333Y-89546261D01*
X118248428Y-88927214D02*
X117867476Y-88927214D01*
X118105571Y-88593880D02*
X118105571Y-89451023D01*
X118057952Y-89546261D01*
X117962714Y-89593880D01*
X117867476Y-89593880D01*
X117153190Y-89546261D02*
X117248428Y-89593880D01*
X117438904Y-89593880D01*
X117534142Y-89546261D01*
X117581761Y-89451023D01*
X117581761Y-89070071D01*
X117534142Y-88974833D01*
X117438904Y-88927214D01*
X117248428Y-88927214D01*
X117153190Y-88974833D01*
X117105571Y-89070071D01*
X117105571Y-89165309D01*
X117581761Y-89260547D01*
X116677000Y-89593880D02*
X116677000Y-88927214D01*
X116677000Y-89117690D02*
X116629380Y-89022452D01*
X116581761Y-88974833D01*
X116486523Y-88927214D01*
X116391285Y-88927214D01*
X115438904Y-88593880D02*
X115105571Y-89593880D01*
X114772238Y-88593880D01*
X114010333Y-88927214D02*
X114010333Y-89593880D01*
X114248428Y-88546261D02*
X114486523Y-89260547D01*
X113867476Y-89260547D01*
X113486523Y-89498642D02*
X113438904Y-89546261D01*
X113486523Y-89593880D01*
X113534142Y-89546261D01*
X113486523Y-89498642D01*
X113486523Y-89593880D01*
X112819857Y-88593880D02*
X112724619Y-88593880D01*
X112629380Y-88641500D01*
X112581761Y-88689119D01*
X112534142Y-88784357D01*
X112486523Y-88974833D01*
X112486523Y-89212928D01*
X112534142Y-89403404D01*
X112581761Y-89498642D01*
X112629380Y-89546261D01*
X112724619Y-89593880D01*
X112819857Y-89593880D01*
X112915095Y-89546261D01*
X112962714Y-89498642D01*
X113010333Y-89403404D01*
X113057952Y-89212928D01*
X113057952Y-88974833D01*
X113010333Y-88784357D01*
X112962714Y-88689119D01*
X112915095Y-88641500D01*
X112819857Y-88593880D01*
X111486523Y-89498642D02*
X111534142Y-89546261D01*
X111677000Y-89593880D01*
X111772238Y-89593880D01*
X111915095Y-89546261D01*
X112010333Y-89451023D01*
X112057952Y-89355785D01*
X112105571Y-89165309D01*
X112105571Y-89022452D01*
X112057952Y-88831976D01*
X112010333Y-88736738D01*
X111915095Y-88641500D01*
X111772238Y-88593880D01*
X111677000Y-88593880D01*
X111534142Y-88641500D01*
X111486523Y-88689119D01*
X108778408Y-91300500D02*
G75*
G03X108778408Y-91300500I-269408J0D01*
G01*
X91887408Y-107683500D02*
G75*
G03X91887408Y-107683500I-269408J0D01*
G01*
G04 #@! TO.C,U4*
X109325000Y-92375000D02*
X109325000Y-90700000D01*
X108875000Y-106625000D02*
X108875000Y-105975000D01*
X129125000Y-106625000D02*
X129125000Y-105975000D01*
X129125000Y-92375000D02*
X129125000Y-93025000D01*
X108875000Y-92375000D02*
X108875000Y-93025000D01*
X129125000Y-92375000D02*
X128675000Y-92375000D01*
X129125000Y-106625000D02*
X128675000Y-106625000D01*
X108875000Y-106625000D02*
X109325000Y-106625000D01*
X108875000Y-92375000D02*
X109325000Y-92375000D01*
G04 #@! TO.C,U2*
X90675000Y-106625000D02*
X90675000Y-108300000D01*
X91125000Y-92375000D02*
X91125000Y-93025000D01*
X70875000Y-92375000D02*
X70875000Y-93025000D01*
X70875000Y-106625000D02*
X70875000Y-105975000D01*
X91125000Y-106625000D02*
X91125000Y-105975000D01*
X70875000Y-106625000D02*
X71325000Y-106625000D01*
X70875000Y-92375000D02*
X71325000Y-92375000D01*
X91125000Y-92375000D02*
X90675000Y-92375000D01*
X91125000Y-106625000D02*
X90675000Y-106625000D01*
G04 #@! TO.C,C12*
X134850000Y-99000000D02*
X134850000Y-100000000D01*
X133150000Y-100000000D02*
X133150000Y-99000000D01*
G04 #@! TO.C,C13*
X65150000Y-100000000D02*
X65150000Y-99000000D01*
X66850000Y-99000000D02*
X66850000Y-100000000D01*
G04 #@! TO.C,P13*
X58500000Y-72560000D02*
X58500000Y-75440000D01*
X58500000Y-72560000D02*
X56000000Y-71120000D01*
X58500000Y-75440000D02*
X56000000Y-76880000D01*
X56000000Y-76880000D02*
X53500000Y-75440000D01*
X53500000Y-75440000D02*
X53500000Y-72560000D01*
X53500000Y-72560000D02*
X56000000Y-71120000D01*
G04 #@! TO.C,P14*
X141500000Y-72560000D02*
X144000000Y-71120000D01*
X141500000Y-75440000D02*
X141500000Y-72560000D01*
X144000000Y-76880000D02*
X141500000Y-75440000D01*
X146500000Y-75440000D02*
X144000000Y-76880000D01*
X146500000Y-72560000D02*
X144000000Y-71120000D01*
X146500000Y-72560000D02*
X146500000Y-75440000D01*
G04 #@! TO.C,P15*
X53500000Y-132560000D02*
X56000000Y-131120000D01*
X53500000Y-135440000D02*
X53500000Y-132560000D01*
X56000000Y-136880000D02*
X53500000Y-135440000D01*
X58500000Y-135440000D02*
X56000000Y-136880000D01*
X58500000Y-132560000D02*
X56000000Y-131120000D01*
X58500000Y-132560000D02*
X58500000Y-135440000D01*
G04 #@! TO.C,P17*
X146500000Y-132560000D02*
X146500000Y-135440000D01*
X146500000Y-132560000D02*
X144000000Y-131120000D01*
X146500000Y-135440000D02*
X144000000Y-136880000D01*
X144000000Y-136880000D02*
X141500000Y-135440000D01*
X141500000Y-135440000D02*
X141500000Y-132560000D01*
X141500000Y-132560000D02*
X144000000Y-131120000D01*
G04 #@! TO.C,J2*
X92100000Y-84700000D02*
X92100000Y-84300000D01*
X107900000Y-84700000D02*
X107900000Y-84300000D01*
X91650000Y-88300000D02*
X92450000Y-88300000D01*
X108350000Y-88300000D02*
X107550000Y-88300000D01*
X92450000Y-89600000D02*
X107550000Y-89600000D01*
X91700000Y-84300000D02*
X92100000Y-84300000D01*
X108300000Y-84300000D02*
X107900000Y-84300000D01*
X108350000Y-84300000D02*
X108350000Y-88300000D01*
X91650000Y-84300000D02*
X91650000Y-88300000D01*
X107550000Y-88300000D02*
X107550000Y-89600000D01*
X92450000Y-88300000D02*
X92450000Y-89600000D01*
X107900000Y-84700000D02*
X92100000Y-84700000D01*
G04 #@! TO.C,U4*
X132765904Y-91832380D02*
X132765904Y-92641904D01*
X132718285Y-92737142D01*
X132670666Y-92784761D01*
X132575428Y-92832380D01*
X132384952Y-92832380D01*
X132289714Y-92784761D01*
X132242095Y-92737142D01*
X132194476Y-92641904D01*
X132194476Y-91832380D01*
X131289714Y-92165714D02*
X131289714Y-92832380D01*
X131527809Y-91784761D02*
X131765904Y-92499047D01*
X131146857Y-92499047D01*
G04 #@! TO.C,U2*
X68186404Y-90562380D02*
X68186404Y-91371904D01*
X68138785Y-91467142D01*
X68091166Y-91514761D01*
X67995928Y-91562380D01*
X67805452Y-91562380D01*
X67710214Y-91514761D01*
X67662595Y-91467142D01*
X67614976Y-91371904D01*
X67614976Y-90562380D01*
X67186404Y-90657619D02*
X67138785Y-90610000D01*
X67043547Y-90562380D01*
X66805452Y-90562380D01*
X66710214Y-90610000D01*
X66662595Y-90657619D01*
X66614976Y-90752857D01*
X66614976Y-90848095D01*
X66662595Y-90990952D01*
X67234023Y-91562380D01*
X66614976Y-91562380D01*
G04 #@! TO.C,C12*
X134107357Y-97118642D02*
X134154976Y-97166261D01*
X134297833Y-97213880D01*
X134393071Y-97213880D01*
X134535928Y-97166261D01*
X134631166Y-97071023D01*
X134678785Y-96975785D01*
X134726404Y-96785309D01*
X134726404Y-96642452D01*
X134678785Y-96451976D01*
X134631166Y-96356738D01*
X134535928Y-96261500D01*
X134393071Y-96213880D01*
X134297833Y-96213880D01*
X134154976Y-96261500D01*
X134107357Y-96309119D01*
X133154976Y-97213880D02*
X133726404Y-97213880D01*
X133440690Y-97213880D02*
X133440690Y-96213880D01*
X133535928Y-96356738D01*
X133631166Y-96451976D01*
X133726404Y-96499595D01*
X132774023Y-96309119D02*
X132726404Y-96261500D01*
X132631166Y-96213880D01*
X132393071Y-96213880D01*
X132297833Y-96261500D01*
X132250214Y-96309119D01*
X132202595Y-96404357D01*
X132202595Y-96499595D01*
X132250214Y-96642452D01*
X132821642Y-97213880D01*
X132202595Y-97213880D01*
G04 #@! TO.C,C13*
X66987857Y-97182142D02*
X67035476Y-97229761D01*
X67178333Y-97277380D01*
X67273571Y-97277380D01*
X67416428Y-97229761D01*
X67511666Y-97134523D01*
X67559285Y-97039285D01*
X67606904Y-96848809D01*
X67606904Y-96705952D01*
X67559285Y-96515476D01*
X67511666Y-96420238D01*
X67416428Y-96325000D01*
X67273571Y-96277380D01*
X67178333Y-96277380D01*
X67035476Y-96325000D01*
X66987857Y-96372619D01*
X66035476Y-97277380D02*
X66606904Y-97277380D01*
X66321190Y-97277380D02*
X66321190Y-96277380D01*
X66416428Y-96420238D01*
X66511666Y-96515476D01*
X66606904Y-96563095D01*
X65702142Y-96277380D02*
X65083095Y-96277380D01*
X65416428Y-96658333D01*
X65273571Y-96658333D01*
X65178333Y-96705952D01*
X65130714Y-96753571D01*
X65083095Y-96848809D01*
X65083095Y-97086904D01*
X65130714Y-97182142D01*
X65178333Y-97229761D01*
X65273571Y-97277380D01*
X65559285Y-97277380D01*
X65654523Y-97229761D01*
X65702142Y-97182142D01*
G04 #@! TO.C,J2*
X89733333Y-84752380D02*
X89733333Y-85466666D01*
X89780952Y-85609523D01*
X89876190Y-85704761D01*
X90019047Y-85752380D01*
X90114285Y-85752380D01*
X89304761Y-84847619D02*
X89257142Y-84800000D01*
X89161904Y-84752380D01*
X88923809Y-84752380D01*
X88828571Y-84800000D01*
X88780952Y-84847619D01*
X88733333Y-84942857D01*
X88733333Y-85038095D01*
X88780952Y-85180952D01*
X89352380Y-85752380D01*
X88733333Y-85752380D01*
G04 #@! TO.C,P3*
X130202095Y-91308380D02*
X130202095Y-90308380D01*
X129821142Y-90308380D01*
X129725904Y-90356000D01*
X129678285Y-90403619D01*
X129630666Y-90498857D01*
X129630666Y-90641714D01*
X129678285Y-90736952D01*
X129725904Y-90784571D01*
X129821142Y-90832190D01*
X130202095Y-90832190D01*
X129297333Y-90308380D02*
X128678285Y-90308380D01*
X129011619Y-90689333D01*
X128868761Y-90689333D01*
X128773523Y-90736952D01*
X128725904Y-90784571D01*
X128678285Y-90879809D01*
X128678285Y-91117904D01*
X128725904Y-91213142D01*
X128773523Y-91260761D01*
X128868761Y-91308380D01*
X129154476Y-91308380D01*
X129249714Y-91260761D01*
X129297333Y-91213142D01*
G04 #@! TD*
M02*
