M48
;DRILL file {KiCad 5.0.2-bee76a0~70~ubuntu18.04.1} date Mo 26 Okt 2020 08:34:27 CET
;FORMAT={-:-/ absolute / inch / decimal}
FMAT,2
INCH,TZ
T1C0.0157
T2C0.0236
%
G90
G05
T1
X2.0305Y-5.1053
X2.0561Y-3.1063
X2.4055Y-4.752
X2.4501Y-4.9091
X2.4724Y-4.5906
X2.4734Y-4.9272
X2.4882Y-5.0807
X2.4966Y-4.9088
X2.5197Y-4.5906
X2.5197Y-4.9272
X2.5433Y-4.9094
X2.5669Y-4.5906
X2.5669Y-4.9272
X2.5906Y-4.9094
X2.6142Y-4.5906
X2.6142Y-4.9272
X2.6378Y-4.9094
X2.6388Y-3.6654
X2.6614Y-4.5906
X2.6614Y-4.9272
X2.6811Y-4.122
X2.6855Y-4.9101
X2.707Y-3.102
X2.7087Y-4.5906
X2.7096Y-4.9272
X2.7333Y-4.9094
X2.747Y-3.077
X2.7559Y-4.5906
X2.7569Y-4.9272
X2.7805Y-4.9094
X2.8031Y-4.5906
X2.8041Y-4.9272
X2.811Y-4.1339
X2.8278Y-4.9094
X2.8425Y-4.1654
X2.8504Y-4.5906
X2.8514Y-4.9272
X2.874Y-4.1339
X2.8976Y-4.5906
X2.902Y-3.052
X2.9055Y-4.1654
X2.932Y-3.127
X2.937Y-4.1339
X2.9449Y-4.5906
X2.9685Y-4.1654
X2.9921Y-4.5906
X3.Y-4.1339
X3.0315Y-4.1654
X3.0394Y-4.5906
X3.063Y-4.1339
X3.0866Y-4.5906
X3.0945Y-4.1654
X3.126Y-4.1339
X3.1339Y-4.5906
X3.1575Y-4.1654
X3.1811Y-4.5906
X3.189Y-4.1339
X3.2205Y-4.1654
X3.2283Y-4.5906
X3.252Y-4.1339
X3.2756Y-4.5906
X3.2835Y-4.1654
X3.315Y-4.1339
X3.3228Y-4.5906
X3.3465Y-4.1654
X3.3474Y-3.2618
X3.3484Y-3.3583
X3.3701Y-4.5906
X3.378Y-4.1339
X3.4094Y-4.1654
X3.4173Y-4.5906
X3.4409Y-4.1339
X3.4646Y-4.5906
X3.4724Y-4.1654
X3.5039Y-4.1339
X3.5118Y-4.5906
X3.5354Y-4.1654
X3.5591Y-4.5906
X3.5669Y-4.1339
X3.6063Y-4.5906
X3.6535Y-4.5906
X3.7008Y-3.7165
X3.7008Y-4.5906
X3.7323Y-3.748
X3.748Y-4.5906
X3.7638Y-3.7795
X3.7953Y-3.811
X3.7953Y-4.5906
X3.8268Y-3.8425
X3.8327Y-4.7142
X3.8425Y-4.5906
X3.8583Y-3.874
X3.8622Y-4.7137
X3.8681Y-3.1565
X3.8888Y-3.185
X3.8927Y-4.7175
X3.8947Y-3.6398
X3.9203Y-3.1831
X3.9327Y-4.7666
X3.947Y-3.052
X3.9478Y-4.7362
X3.9606Y-4.5945
X3.9626Y-4.7047
X3.9862Y-3.127
X3.987Y-3.027
X4.0256Y-3.077
X4.042Y-3.837
X4.065Y-3.102
X4.0705Y-3.4787
X4.0787Y-3.7795
X4.0787Y-4.3976
X4.1024Y-4.5906
X4.1043Y-3.127
X4.1102Y-3.748
X4.1417Y-3.7165
X4.1496Y-4.5906
X4.157Y-3.632
X4.1644Y-3.4124
X4.1732Y-3.685
X4.1969Y-4.5906
X4.2142Y-4.8555
X4.2441Y-4.5906
X4.2913Y-4.5906
X4.3134Y-4.7461
X4.3386Y-4.1335
X4.3386Y-4.5902
X4.368Y-4.866
X4.3701Y-4.165
X4.3711Y-4.8337
X4.3858Y-4.5902
X4.4016Y-4.1335
X4.4036Y-4.8888
X4.4067Y-4.8565
X4.4331Y-4.165
X4.4331Y-4.5902
X4.4453Y-4.8886
X4.4646Y-4.1335
X4.472Y-4.9047
X4.4803Y-4.5902
X4.4961Y-4.165
X4.4984Y-4.9217
X4.527Y-3.2598
X4.5276Y-4.1335
X4.5276Y-4.5902
X4.5303Y-4.9323
X4.5591Y-4.165
X4.5748Y-4.5902
X4.5906Y-4.1335
X4.5945Y-4.9321
X4.622Y-4.165
X4.622Y-4.5902
X4.6535Y-4.1335
X4.6693Y-4.5902
X4.685Y-4.165
X4.7165Y-4.1335
X4.7165Y-4.5902
X4.748Y-4.165
X4.7638Y-4.5902
X4.7795Y-4.1335
X4.811Y-4.165
X4.811Y-4.5902
X4.827Y-3.077
X4.832Y-3.127
X4.8425Y-4.1335
X4.8583Y-4.5902
X4.862Y-3.102
X4.874Y-4.165
X4.9055Y-4.1335
X4.9055Y-4.5902
X4.937Y-4.165
X4.9528Y-4.5902
X4.9685Y-4.1335
X4.9764Y-4.938
X5.Y-4.165
X5.Y-4.5902
X5.0002Y-4.9199
X5.0167Y-3.027
X5.017Y-3.057
X5.024Y-4.9375
X5.0315Y-4.1335
X5.0472Y-4.5902
X5.0483Y-4.9207
X5.063Y-4.165
X5.0712Y-4.9392
X5.0945Y-4.5902
X5.0946Y-4.9212
X5.1187Y-4.9383
X5.1417Y-4.5902
X5.1423Y-4.9205
X5.1654Y-4.939
X5.167Y-3.577
X5.188Y-4.124
X5.189Y-4.5902
X5.189Y-4.9213
X5.2126Y-4.939
X5.2352Y-4.9193
X5.2362Y-4.5902
X5.2598Y-4.937
X5.2835Y-4.5902
X5.2839Y-4.9191
X5.3081Y-4.936
X5.33Y-4.9163
X5.3307Y-4.5902
X5.3543Y-4.9331
X5.378Y-4.5902
X5.3797Y-4.918
X5.4252Y-4.5902
X5.4551Y-4.9491
X5.4995Y-4.9643
X5.5143Y-4.9388
X5.5955Y-3.8888
X5.6265Y-4.0544
X5.6266Y-3.9304
X5.627Y-3.6663
X5.627Y-3.7067
X5.627Y-3.748
X5.627Y-3.7854
X5.627Y-3.8159
X5.627Y-3.8583
X5.627Y-3.9717
X5.627Y-4.0131
X5.7146Y-4.0689
X5.7165Y-3.8906
X5.7175Y-4.1215
X5.7175Y-3.9557
X5.7175Y-3.9951
X5.7175Y-4.0354
X5.7175Y-3.7608
X5.7176Y-3.9202
X5.7185Y-3.6348
X5.7188Y-3.8612
X5.7201Y-3.8022
X5.7254Y-3.6781
X5.7264Y-3.7195
X5.7293Y-4.0945
X5.8041Y-3.0738
T2
X2.3374Y-3.5837
X2.3386Y-3.8976
X2.365Y-3.079
X2.817Y-2.997
X2.862Y-2.997
X3.492Y-3.287
X3.493Y-3.373
X3.742Y-2.997
X3.749Y-4.9154
X3.787Y-2.917
X3.827Y-2.952
X4.201Y-3.373
X4.5276Y-3.3583
X4.852Y-2.992
X4.907Y-2.992
X5.002Y-2.952
X5.7067Y-3.3179
X5.7067Y-3.4557
T0
M30
