G04 #@! TF.GenerationSoftware,KiCad,Pcbnew,5.0.2-bee76a0~70~ubuntu18.04.1*
G04 #@! TF.CreationDate,2020-10-28T09:15:44+01:00*
G04 #@! TF.ProjectId,ModulAdapter_Verv2,4d6f6475-6c41-4646-9170-7465725f5665,rev?*
G04 #@! TF.SameCoordinates,Original*
G04 #@! TF.FileFunction,Soldermask,Top*
G04 #@! TF.FilePolarity,Negative*
%FSLAX46Y46*%
G04 Gerber Fmt 4.6, Leading zero omitted, Abs format (unit mm)*
G04 Created by KiCad (PCBNEW 5.0.2-bee76a0~70~ubuntu18.04.1) date Mi 28 Okt 2020 09:15:44 CET*
%MOMM*%
%LPD*%
G01*
G04 APERTURE LIST*
%ADD10C,0.100000*%
G04 APERTURE END LIST*
D10*
G36*
X144466703Y-132461486D02*
X144757883Y-132582097D01*
X145019944Y-132757201D01*
X145242799Y-132980056D01*
X145417903Y-133242117D01*
X145538514Y-133533297D01*
X145600000Y-133842412D01*
X145600000Y-134157588D01*
X145538514Y-134466703D01*
X145417903Y-134757883D01*
X145242799Y-135019944D01*
X145019944Y-135242799D01*
X144757883Y-135417903D01*
X144466703Y-135538514D01*
X144157588Y-135600000D01*
X143842412Y-135600000D01*
X143533297Y-135538514D01*
X143242117Y-135417903D01*
X142980056Y-135242799D01*
X142757201Y-135019944D01*
X142582097Y-134757883D01*
X142461486Y-134466703D01*
X142400000Y-134157588D01*
X142400000Y-133842412D01*
X142461486Y-133533297D01*
X142582097Y-133242117D01*
X142757201Y-132980056D01*
X142980056Y-132757201D01*
X143242117Y-132582097D01*
X143533297Y-132461486D01*
X143842412Y-132400000D01*
X144157588Y-132400000D01*
X144466703Y-132461486D01*
X144466703Y-132461486D01*
G37*
G36*
X56466703Y-132461486D02*
X56757883Y-132582097D01*
X57019944Y-132757201D01*
X57242799Y-132980056D01*
X57417903Y-133242117D01*
X57538514Y-133533297D01*
X57600000Y-133842412D01*
X57600000Y-134157588D01*
X57538514Y-134466703D01*
X57417903Y-134757883D01*
X57242799Y-135019944D01*
X57019944Y-135242799D01*
X56757883Y-135417903D01*
X56466703Y-135538514D01*
X56157588Y-135600000D01*
X55842412Y-135600000D01*
X55533297Y-135538514D01*
X55242117Y-135417903D01*
X54980056Y-135242799D01*
X54757201Y-135019944D01*
X54582097Y-134757883D01*
X54461486Y-134466703D01*
X54400000Y-134157588D01*
X54400000Y-133842412D01*
X54461486Y-133533297D01*
X54582097Y-133242117D01*
X54757201Y-132980056D01*
X54980056Y-132757201D01*
X55242117Y-132582097D01*
X55533297Y-132461486D01*
X55842412Y-132400000D01*
X56157588Y-132400000D01*
X56466703Y-132461486D01*
X56466703Y-132461486D01*
G37*
G36*
X145500000Y-130490000D02*
X140700000Y-130490000D01*
X140700000Y-125490000D01*
X145500000Y-125490000D01*
X145500000Y-130490000D01*
X145500000Y-130490000D01*
G37*
G36*
X59300000Y-130490000D02*
X54500000Y-130490000D01*
X54500000Y-125490000D01*
X59300000Y-125490000D01*
X59300000Y-130490000D01*
X59300000Y-130490000D01*
G37*
G36*
X103700000Y-130490000D02*
X101100000Y-130490000D01*
X101100000Y-125490000D01*
X103700000Y-125490000D01*
X103700000Y-130490000D01*
X103700000Y-130490000D01*
G37*
G36*
X137975000Y-127750000D02*
X104025000Y-127750000D01*
X104025000Y-125750000D01*
X137975000Y-125750000D01*
X137975000Y-127750000D01*
X137975000Y-127750000D01*
G37*
G36*
X100775000Y-127750000D02*
X62025000Y-127750000D01*
X62025000Y-125750000D01*
X100775000Y-125750000D01*
X100775000Y-127750000D01*
X100775000Y-127750000D01*
G37*
G36*
X81247765Y-122254403D02*
X81370445Y-122278805D01*
X81601571Y-122374541D01*
X81809581Y-122513529D01*
X81986471Y-122690419D01*
X81986473Y-122690422D01*
X82125459Y-122898429D01*
X82221195Y-123129555D01*
X82270000Y-123374916D01*
X82270000Y-123625084D01*
X82221195Y-123870445D01*
X82125459Y-124101571D01*
X81986471Y-124309581D01*
X81809581Y-124486471D01*
X81809578Y-124486473D01*
X81601571Y-124625459D01*
X81370445Y-124721195D01*
X81247764Y-124745598D01*
X81125086Y-124770000D01*
X80874914Y-124770000D01*
X80752236Y-124745598D01*
X80629555Y-124721195D01*
X80398429Y-124625459D01*
X80190422Y-124486473D01*
X80190419Y-124486471D01*
X80013529Y-124309581D01*
X79874541Y-124101571D01*
X79778805Y-123870445D01*
X79730000Y-123625084D01*
X79730000Y-123374916D01*
X79778805Y-123129555D01*
X79874541Y-122898429D01*
X80013527Y-122690422D01*
X80013529Y-122690419D01*
X80190419Y-122513529D01*
X80398429Y-122374541D01*
X80629555Y-122278805D01*
X80752235Y-122254403D01*
X80874914Y-122230000D01*
X81125086Y-122230000D01*
X81247765Y-122254403D01*
X81247765Y-122254403D01*
G37*
G36*
X143464612Y-122198037D02*
X143692096Y-122292264D01*
X143896831Y-122429064D01*
X144070936Y-122603169D01*
X144207736Y-122807904D01*
X144301963Y-123035388D01*
X144350000Y-123276885D01*
X144350000Y-123523115D01*
X144301963Y-123764612D01*
X144207736Y-123992096D01*
X144070936Y-124196831D01*
X143896831Y-124370936D01*
X143692096Y-124507736D01*
X143464612Y-124601963D01*
X143223115Y-124650000D01*
X142976885Y-124650000D01*
X142735388Y-124601963D01*
X142507904Y-124507736D01*
X142303169Y-124370936D01*
X142129064Y-124196831D01*
X141992264Y-123992096D01*
X141898037Y-123764612D01*
X141850000Y-123523115D01*
X141850000Y-123276885D01*
X141898037Y-123035388D01*
X141992264Y-122807904D01*
X142129064Y-122603169D01*
X142303169Y-122429064D01*
X142507904Y-122292264D01*
X142735388Y-122198037D01*
X142976885Y-122150000D01*
X143223115Y-122150000D01*
X143464612Y-122198037D01*
X143464612Y-122198037D01*
G37*
G36*
X102764612Y-122198037D02*
X102992096Y-122292264D01*
X103196831Y-122429064D01*
X103370936Y-122603169D01*
X103507736Y-122807904D01*
X103601963Y-123035388D01*
X103650000Y-123276885D01*
X103650000Y-123523115D01*
X103601963Y-123764612D01*
X103507736Y-123992096D01*
X103370936Y-124196831D01*
X103196831Y-124370936D01*
X102992096Y-124507736D01*
X102764612Y-124601963D01*
X102523115Y-124650000D01*
X102276885Y-124650000D01*
X102035388Y-124601963D01*
X101807904Y-124507736D01*
X101603169Y-124370936D01*
X101429064Y-124196831D01*
X101292264Y-123992096D01*
X101198037Y-123764612D01*
X101150000Y-123523115D01*
X101150000Y-123276885D01*
X101198037Y-123035388D01*
X101292264Y-122807904D01*
X101429064Y-122603169D01*
X101603169Y-122429064D01*
X101807904Y-122292264D01*
X102035388Y-122198037D01*
X102276885Y-122150000D01*
X102523115Y-122150000D01*
X102764612Y-122198037D01*
X102764612Y-122198037D01*
G37*
G36*
X57264612Y-122198037D02*
X57492096Y-122292264D01*
X57696831Y-122429064D01*
X57870936Y-122603169D01*
X58007736Y-122807904D01*
X58101963Y-123035388D01*
X58150000Y-123276885D01*
X58150000Y-123523115D01*
X58101963Y-123764612D01*
X58007736Y-123992096D01*
X57870936Y-124196831D01*
X57696831Y-124370936D01*
X57492096Y-124507736D01*
X57264612Y-124601963D01*
X57023115Y-124650000D01*
X56776885Y-124650000D01*
X56535388Y-124601963D01*
X56307904Y-124507736D01*
X56103169Y-124370936D01*
X55929064Y-124196831D01*
X55792264Y-123992096D01*
X55698037Y-123764612D01*
X55650000Y-123523115D01*
X55650000Y-123276885D01*
X55698037Y-123035388D01*
X55792264Y-122807904D01*
X55929064Y-122603169D01*
X56103169Y-122429064D01*
X56307904Y-122292264D01*
X56535388Y-122198037D01*
X56776885Y-122150000D01*
X57023115Y-122150000D01*
X57264612Y-122198037D01*
X57264612Y-122198037D01*
G37*
G36*
X103700000Y-121310000D02*
X101100000Y-121310000D01*
X101100000Y-116310000D01*
X103700000Y-116310000D01*
X103700000Y-121310000D01*
X103700000Y-121310000D01*
G37*
G36*
X145500000Y-121310000D02*
X140700000Y-121310000D01*
X140700000Y-116310000D01*
X145500000Y-116310000D01*
X145500000Y-121310000D01*
X145500000Y-121310000D01*
G37*
G36*
X59300000Y-121310000D02*
X54500000Y-121310000D01*
X54500000Y-116310000D01*
X59300000Y-116310000D01*
X59300000Y-121310000D01*
X59300000Y-121310000D01*
G37*
G36*
X137975000Y-119050000D02*
X104025000Y-119050000D01*
X104025000Y-117050000D01*
X137975000Y-117050000D01*
X137975000Y-119050000D01*
X137975000Y-119050000D01*
G37*
G36*
X100775000Y-119050000D02*
X62025000Y-119050000D01*
X62025000Y-117050000D01*
X100775000Y-117050000D01*
X100775000Y-119050000D01*
X100775000Y-119050000D01*
G37*
G36*
X148431200Y-109279600D02*
X144431200Y-109279600D01*
X144431200Y-107179600D01*
X148431200Y-107179600D01*
X148431200Y-109279600D01*
X148431200Y-109279600D01*
G37*
G36*
X54352000Y-107768800D02*
X51352000Y-107768800D01*
X51352000Y-106268800D01*
X54352000Y-106268800D01*
X54352000Y-107768800D01*
X54352000Y-107768800D01*
G37*
G36*
X144631200Y-106129600D02*
X143531200Y-106129600D01*
X143531200Y-83829600D01*
X144631200Y-83829600D01*
X144631200Y-106129600D01*
X144631200Y-106129600D01*
G37*
G36*
X61252000Y-105518800D02*
X57452000Y-105518800D01*
X57452000Y-104518800D01*
X61252000Y-104518800D01*
X61252000Y-105518800D01*
X61252000Y-105518800D01*
G37*
G36*
X61252000Y-103518800D02*
X57452000Y-103518800D01*
X57452000Y-102518800D01*
X61252000Y-102518800D01*
X61252000Y-103518800D01*
X61252000Y-103518800D01*
G37*
G36*
X61252000Y-101518800D02*
X57452000Y-101518800D01*
X57452000Y-100518800D01*
X61252000Y-100518800D01*
X61252000Y-101518800D01*
X61252000Y-101518800D01*
G37*
G36*
X61252000Y-99518800D02*
X57452000Y-99518800D01*
X57452000Y-98518800D01*
X61252000Y-98518800D01*
X61252000Y-99518800D01*
X61252000Y-99518800D01*
G37*
G36*
X61252000Y-97518800D02*
X57452000Y-97518800D01*
X57452000Y-96518800D01*
X61252000Y-96518800D01*
X61252000Y-97518800D01*
X61252000Y-97518800D01*
G37*
G36*
X61252000Y-95518800D02*
X57452000Y-95518800D01*
X57452000Y-94518800D01*
X61252000Y-94518800D01*
X61252000Y-95518800D01*
X61252000Y-95518800D01*
G37*
G36*
X61252000Y-93518800D02*
X57452000Y-93518800D01*
X57452000Y-92518800D01*
X61252000Y-92518800D01*
X61252000Y-93518800D01*
X61252000Y-93518800D01*
G37*
G36*
X61252000Y-91518800D02*
X57452000Y-91518800D01*
X57452000Y-90518800D01*
X61252000Y-90518800D01*
X61252000Y-91518800D01*
X61252000Y-91518800D01*
G37*
G36*
X54352000Y-89768800D02*
X51352000Y-89768800D01*
X51352000Y-88268800D01*
X54352000Y-88268800D01*
X54352000Y-89768800D01*
X54352000Y-89768800D01*
G37*
G36*
X115750570Y-86050570D02*
X114249430Y-86050570D01*
X114249430Y-84549430D01*
X115750570Y-84549430D01*
X115750570Y-86050570D01*
X115750570Y-86050570D01*
G37*
G36*
X85764570Y-86050570D02*
X84263430Y-86050570D01*
X84263430Y-84549430D01*
X85764570Y-84549430D01*
X85764570Y-86050570D01*
X85764570Y-86050570D01*
G37*
G36*
X115736570Y-83550570D02*
X114235430Y-83550570D01*
X114235430Y-82049430D01*
X115736570Y-82049430D01*
X115736570Y-83550570D01*
X115736570Y-83550570D01*
G37*
G36*
X85764570Y-83550570D02*
X84263430Y-83550570D01*
X84263430Y-82049430D01*
X85764570Y-82049430D01*
X85764570Y-83550570D01*
X85764570Y-83550570D01*
G37*
G36*
X148431200Y-82779600D02*
X144431200Y-82779600D01*
X144431200Y-80679600D01*
X148431200Y-80679600D01*
X148431200Y-82779600D01*
X148431200Y-82779600D01*
G37*
G36*
X56466703Y-72461486D02*
X56757883Y-72582097D01*
X57019944Y-72757201D01*
X57242799Y-72980056D01*
X57417903Y-73242117D01*
X57538514Y-73533297D01*
X57600000Y-73842412D01*
X57600000Y-74157588D01*
X57538514Y-74466703D01*
X57417903Y-74757883D01*
X57242799Y-75019944D01*
X57019944Y-75242799D01*
X56757883Y-75417903D01*
X56466703Y-75538514D01*
X56157588Y-75600000D01*
X55842412Y-75600000D01*
X55533297Y-75538514D01*
X55242117Y-75417903D01*
X54980056Y-75242799D01*
X54757201Y-75019944D01*
X54582097Y-74757883D01*
X54461486Y-74466703D01*
X54400000Y-74157588D01*
X54400000Y-73842412D01*
X54461486Y-73533297D01*
X54582097Y-73242117D01*
X54757201Y-72980056D01*
X54980056Y-72757201D01*
X55242117Y-72582097D01*
X55533297Y-72461486D01*
X55842412Y-72400000D01*
X56157588Y-72400000D01*
X56466703Y-72461486D01*
X56466703Y-72461486D01*
G37*
G36*
X144466703Y-72461486D02*
X144757883Y-72582097D01*
X145019944Y-72757201D01*
X145242799Y-72980056D01*
X145417903Y-73242117D01*
X145538514Y-73533297D01*
X145600000Y-73842412D01*
X145600000Y-74157588D01*
X145538514Y-74466703D01*
X145417903Y-74757883D01*
X145242799Y-75019944D01*
X145019944Y-75242799D01*
X144757883Y-75417903D01*
X144466703Y-75538514D01*
X144157588Y-75600000D01*
X143842412Y-75600000D01*
X143533297Y-75538514D01*
X143242117Y-75417903D01*
X142980056Y-75242799D01*
X142757201Y-75019944D01*
X142582097Y-74757883D01*
X142461486Y-74466703D01*
X142400000Y-74157588D01*
X142400000Y-73842412D01*
X142461486Y-73533297D01*
X142582097Y-73242117D01*
X142757201Y-72980056D01*
X142980056Y-72757201D01*
X143242117Y-72582097D01*
X143533297Y-72461486D01*
X143842412Y-72400000D01*
X144157588Y-72400000D01*
X144466703Y-72461486D01*
X144466703Y-72461486D01*
G37*
G36*
X63247765Y-72754403D02*
X63370445Y-72778805D01*
X63601571Y-72874541D01*
X63809581Y-73013529D01*
X63986471Y-73190419D01*
X63986473Y-73190422D01*
X64125459Y-73398429D01*
X64221195Y-73629555D01*
X64270000Y-73874916D01*
X64270000Y-74125084D01*
X64221195Y-74370445D01*
X64181323Y-74466703D01*
X64125459Y-74601571D01*
X63986471Y-74809581D01*
X63809581Y-74986471D01*
X63809578Y-74986473D01*
X63601571Y-75125459D01*
X63370445Y-75221195D01*
X63247765Y-75245597D01*
X63125086Y-75270000D01*
X62874914Y-75270000D01*
X62752235Y-75245597D01*
X62629555Y-75221195D01*
X62398429Y-75125459D01*
X62190422Y-74986473D01*
X62190419Y-74986471D01*
X62013529Y-74809581D01*
X61874541Y-74601571D01*
X61818677Y-74466703D01*
X61778805Y-74370445D01*
X61730000Y-74125084D01*
X61730000Y-73874916D01*
X61778805Y-73629555D01*
X61874541Y-73398429D01*
X62013527Y-73190422D01*
X62013529Y-73190419D01*
X62190419Y-73013529D01*
X62398429Y-72874541D01*
X62629555Y-72778805D01*
X62752235Y-72754403D01*
X62874914Y-72730000D01*
X63125086Y-72730000D01*
X63247765Y-72754403D01*
X63247765Y-72754403D01*
G37*
G36*
X137247765Y-72754403D02*
X137370445Y-72778805D01*
X137601571Y-72874541D01*
X137809581Y-73013529D01*
X137986471Y-73190419D01*
X137986473Y-73190422D01*
X138125459Y-73398429D01*
X138221195Y-73629555D01*
X138270000Y-73874916D01*
X138270000Y-74125084D01*
X138221195Y-74370445D01*
X138181323Y-74466703D01*
X138125459Y-74601571D01*
X137986471Y-74809581D01*
X137809581Y-74986471D01*
X137809578Y-74986473D01*
X137601571Y-75125459D01*
X137370445Y-75221195D01*
X137247765Y-75245597D01*
X137125086Y-75270000D01*
X136874914Y-75270000D01*
X136752235Y-75245597D01*
X136629555Y-75221195D01*
X136398429Y-75125459D01*
X136190422Y-74986473D01*
X136190419Y-74986471D01*
X136013529Y-74809581D01*
X135874541Y-74601571D01*
X135818677Y-74466703D01*
X135778805Y-74370445D01*
X135730000Y-74125084D01*
X135730000Y-73874916D01*
X135778805Y-73629555D01*
X135874541Y-73398429D01*
X136013527Y-73190422D01*
X136013529Y-73190419D01*
X136190419Y-73013529D01*
X136398429Y-72874541D01*
X136629555Y-72778805D01*
X136752235Y-72754403D01*
X136874914Y-72730000D01*
X137125086Y-72730000D01*
X137247765Y-72754403D01*
X137247765Y-72754403D01*
G37*
M02*
